<svg width="16" height="16" viewBox="0 0 16 16" fill="none" xmlns="http://www.w3.org/2000/svg">
<g clip-path="url(#clip1)">
<path d="M8 9C8.39782 9 8.77936 8.84196 9.06066 8.56066C9.34196 8.27936 9.5 7.89782 9.5 7.5C9.5 7.10218 9.34196 6.72064 9.06066 6.43934C8.77936 6.15804 8.39782 6 8 6C7.60218 6 7.22064 6.15804 6.93934 6.43934C6.65804 6.72064 6.5 7.10218 6.5 7.5C6.5 7.89782 6.65804 8.27936 6.93934 8.56066C7.22064 8.84196 7.60218 9 8 9ZM1.5 9C1.89782 9 2.27936 8.84196 2.56066 8.56066C2.84196 8.27936 3 7.89782 3 7.5C3 7.10218 2.84196 6.72064 2.56066 6.43934C2.27936 6.15804 1.89782 6 1.5 6C1.10218 6 0.720644 6.15804 0.43934 6.43934C0.158035 6.72064 0 7.10218 0 7.5C0 7.89782 0.158035 8.27936 0.43934 8.56066C0.720644 8.84196 1.10218 9 1.5 9ZM14.5 9C14.8978 9 15.2794 8.84196 15.5607 8.56066C15.842 8.27936 16 7.89782 16 7.5C16 7.10218 15.842 6.72064 15.5607 6.43934C15.2794 6.15804 14.8978 6 14.5 6C14.1022 6 13.7206 6.15804 13.4393 6.43934C13.158 6.72064 13 7.10218 13 7.5C13 7.89782 13.158 8.27936 13.4393 8.56066C13.7206 8.84196 14.1022 9 14.5 9Z" fill="#36458F"/>
</g>
<defs>
<clipPath id="clip1">
<rect width="16" height="16" fill="white"/>
</clipPath>
</defs>
</svg>
