<svg fill="none" xmlns="http://www.w3.org/2000/svg" viewBox="0 0 67 53">
  <path d="M3.253 39.825c.5.244 1.038.412 1.593.506l-.864 1.203a1.89 1.89 0 00-.334.816L2.36 50.808a1.89 1.89 0 00.816 1.846c.61.416 1.407.46 2.06.115l7.273-3.835a5.919 5.919 0 005.155 2.967 5.955 5.955 0 003.926-1.464 5.957 5.957 0 003.926 1.464c3.248 0 5.89-2.573 5.89-5.735v-.732a27.647 27.647 0 0011.777 2.643c4.194 0 8.353-.937 12.04-2.707v4.62c0 .662.351 1.277.93 1.626.578.347 1.3.38 1.91.083l7.852-3.823A1.908 1.908 0 0067 46.166V23.224c0-1.056-.88-1.912-1.963-1.912H51.49l-13.847-6.6 5.261-7.317a1.881 1.881 0 00-.483-2.663L35.99.346c-.887-.605-2.112-.396-2.734.47l-6.96 9.681c-1.61-.824-3.541-.82-4.766-.302l-7.47 3.16a5.828 5.828 0 00-2.622 2.184L.719 31.959c-.696 1.067-.985 2.897-.42 4.55a5.748 5.748 0 002.954 3.316zm3.567 7.761l.644-4.228 1.755-2.442a7.849 7.849 0 002.974 2.529L10.68 45.55l-3.86 2.035zm10.845.492c-1.083 0-1.963-.858-1.963-1.912v-.935l.702-.977h3.223v1.912c0 1.054-.88 1.912-1.962 1.912zm7.852 0c-1.083 0-1.963-.858-1.963-1.912v-1.912h3.926v1.912c0 1.054-.881 1.912-1.963 1.912zm37.557-3.094l-3.926 1.912v-21.76h3.926v19.848zM50.172 24.941c.269.128.564.194.863.194h4.187v16c-1.323.5-5.43 3.119-12.039 3.119-7.005 0-11.32-3.022-12.863-3.622a2.028 2.028 0 00-.878-.202h-13.74c-2.008 0-3.667-1.475-3.898-3.37a1.86 1.86 0 00-.009-.835c.198-1.93 1.874-3.442 3.907-3.442h12.114c4.105 0 7.964-1.557 10.866-4.384a1.877 1.877 0 000-2.704 2 2 0 00-2.776 0c-2.161 2.105-5.034 3.264-8.09 3.264H27.4l7.962-11.075 14.81 7.057zm-19.33-14.102l3.215 2.194-11.45 15.926h-4.792L30.84 10.84zm4.503-6.264l3.216 2.193-2.252 3.133-3.216-2.194 2.252-3.132zM4.095 33.913L14.75 17.591c.21-.324.514-.575.874-.728L23 13.742c.328-.094.666-.1.985-.031L12.562 29.599c-2.414 1.03-4.198 3.209-4.617 5.824-.36.981-1.919 1.477-2.936.982a1.889 1.889 0 01-.914-2.492z" fill="#36458F"/>
</svg>
