<svg viewBox="0 0 48 48" xmlns="http://www.w3.org/2000/svg">
  <path d="M27.09 34.56L15 46.65c-3.57-3.58-7.17-7.19-12-12A6.79 6.79 0 0112.59 25L15 27.44C17.4 25 18.87 23 22.21 23a6.81 6.81 0 014.88 11.56zM45.42 19.9L37 28.32l-8.58-8.58a4.85 4.85 0 116.86-6.86L37 14.6c1.72-1.72 2.76-3.15 5.15-3.15a4.89 4.89 0 013.27 8.45z" fill="#de4a8c"/>
  <path d="M45.42 19.9a9.08 9.08 0 01-12.84 0C30.65 18 29 16.8 29 14.31a4.75 4.75 0 01.58-2.31 4.92 4.92 0 013.66-.37c1.45.45 2 1.23 3.76 2.95 1.64-1.64 2.29-2.5 3.76-2.95 4.93-1.4 8.3 4.63 4.66 8.27z" fill="#f26da6"/>
  <path d="M26.87 7.63L20 14.5c-7.53-7.5-8-7.63-8-9.61a3.9 3.9 0 015-3.73c1.16.35 1.64 1 3 2.36 1.33-1.33 1.86-2 3-2.36a3.89 3.89 0 013.87 6.47z" fill="#de4a8c"/>
  <g fill="#f26da6">
    <path d="M26.72 7.78a6.67 6.67 0 01-9.44 0l-2.14-2.15a3.87 3.87 0 01-.81-4.3 3.84 3.84 0 014.29.81L20 3.52C21.38 2.14 22.21 1 24.12 1a3.91 3.91 0 012.6 6.78zM27.09 34.56l-3.76 3.77a6.12 6.12 0 01-8.65 0C6.86 30.49 5 29.51 5 25.83a6.61 6.61 0 01.43-2.36 6.84 6.84 0 014.31-.16c2 .62 2.8 1.67 5.26 4.13 2.35-2.35 3.25-3.51 5.27-4.13a6.81 6.81 0 016.82 11.25z"/>
  </g>
</svg>