<svg viewBox="0 0 48 48" xmlns="http://www.w3.org/2000/svg"><g id="A_lot_of_hearts" data-name="A lot of hearts"><path d="m27.09 34.56-12.09 12.09c-3.57-3.58-7.17-7.19-12-12a6.79 6.79 0 0 1 9.59-9.65l2.41 2.44c2.4-2.44 3.87-4.44 7.21-4.44a6.81 6.81 0 0 1 4.88 11.56z" fill="#de4a8c"/><path d="m45.42 19.9-8.42 8.42-8.58-8.58a4.85 4.85 0 1 1 6.86-6.86l1.72 1.72c1.72-1.72 2.76-3.15 5.15-3.15a4.89 4.89 0 0 1 3.27 8.45z" fill="#de4a8c"/><path d="m45.42 19.9a9.08 9.08 0 0 1 -12.84 0c-1.93-1.9-3.58-3.1-3.58-5.59a4.75 4.75 0 0 1 .58-2.31 4.92 4.92 0 0 1 3.66-.37c1.45.45 2 1.23 3.76 2.95 1.64-1.64 2.29-2.5 3.76-2.95 4.93-1.4 8.3 4.63 4.66 8.27z" fill="#f26da6"/><path d="m26.87 7.63-6.87 6.87c-7.53-7.5-8-7.63-8-9.61a3.9 3.9 0 0 1 5-3.73c1.16.35 1.64 1 3 2.36 1.33-1.33 1.86-2 3-2.36a3.89 3.89 0 0 1 3.87 6.47z" fill="#de4a8c"/><g fill="#f26da6"><path d="m26.72 7.78a6.67 6.67 0 0 1 -9.44 0l-2.14-2.15a3.87 3.87 0 0 1 -.81-4.3 3.84 3.84 0 0 1 4.29.81l1.38 1.38c1.38-1.38 2.21-2.52 4.12-2.52a3.91 3.91 0 0 1 2.6 6.78z"/><path d="m27.09 34.56-3.76 3.77a6.12 6.12 0 0 1 -8.65 0c-7.82-7.84-9.68-8.82-9.68-12.5a6.61 6.61 0 0 1 .43-2.36 6.84 6.84 0 0 1 4.31-.16c2 .62 2.8 1.67 5.26 4.13 2.35-2.35 3.25-3.51 5.27-4.13a6.81 6.81 0 0 1 6.82 11.25z"/></g></g></svg>