<svg fill="none" xmlns="http://www.w3.org/2000/svg" viewBox="0 0 20 24">
  <path d="M19.31 7.776c-.995-2.94-2.892-3.557-4.308-3.557a.723.723 0 00-.23.038 5.658 5.658 0 00-3.775-1.444.72.72 0 00-.354.093A7.786 7.786 0 006.29 1.412a15.13 15.13 0 00-.992-.71L4.772.357A2.16 2.16 0 003.58 0C2.395 0 1.43.946 1.43 2.11c0 .706.357 1.362.955 1.754l.53.347c.041.028 4.24 2.817 4.24 6.237a.811.811 0 01-.817.803c-.284 0-.551-.11-.752-.307L3.665 9.056a2.152 2.152 0 00-1.518-.618C.963 8.438 0 9.384 0 10.548c0 1.093.962 1.96 2.18 3.06 2.1 1.893 4.977 4.488 4.977 9.689 0 .388.32.703.715.703h8.588a.71.71 0 00.716-.703v-.074c0-1.898.553-2.899 1.193-4.058C19.134 17.78 20 16.213 20 13.013c0-2.15-.226-3.864-.69-5.237zM17.11 18.494c-.606 1.098-1.232 2.23-1.348 4.1H8.572c-.251-5.358-3.347-8.15-5.424-10.023-.883-.796-1.717-1.548-1.717-2.024a.71.71 0 01.716-.703c.191 0 .37.073.506.206l1.922 1.889a2.502 2.502 0 001.764.718c1.24 0 2.249-.991 2.249-2.21 0-4.163-4.68-7.275-4.879-7.405l-.528-.347a.7.7 0 01-.318-.586.71.71 0 01.716-.703c.141 0 .278.041.397.12l.528.346a13.756 13.756 0 015.478 7.047c.125.368.53.568.906.445a.7.7 0 00.452-.89 15.056 15.056 0 00-3.115-5.27c1.592.584 2.905 1.786 3.54 3.345.438 1.08.777 2.232 1.007 3.426a.713.713 0 00.836.56.704.704 0 00.57-.821 19.658 19.658 0 00-1.085-3.687 7.15 7.15 0 00-.94-1.645 4.209 4.209 0 012.906 2.94c.287 1.06.485 2.167.589 3.289a.71.71 0 00.777.637.707.707 0 00.648-.764 20.85 20.85 0 00-.63-3.524 5.55 5.55 0 00-.462-1.163c2.11.801 2.588 4.258 2.588 7.216 0 2.843-.741 4.184-1.458 5.481z" fill="#36458F"/>
</svg>